<svg width="21" height="20" viewBox="0 0 21 20" fill="none" xmlns="http://www.w3.org/2000/svg">
<path d="M17.5833 4.1665C18.2736 4.1665 18.8333 3.60686 18.8333 2.9165C18.8333 2.22615 18.2736 1.6665 17.5833 1.6665C16.8929 1.6665 16.3333 2.22615 16.3333 2.9165C16.3333 3.60686 16.8929 4.1665 17.5833 4.1665Z" stroke="#898C95" stroke-width="1.5" stroke-linecap="round" stroke-linejoin="round"/>
<path d="M3.41675 18.3335C4.10711 18.3335 4.66675 17.7738 4.66675 17.0835C4.66675 16.3932 4.10711 15.8335 3.41675 15.8335C2.72639 15.8335 2.16675 16.3932 2.16675 17.0835C2.16675 17.7738 2.72639 18.3335 3.41675 18.3335Z" stroke="#898C95" stroke-width="1.5" stroke-linecap="round" stroke-linejoin="round"/>
<path d="M18.0322 10.8854C18.5064 10.7725 18.8334 10.4112 18.8334 10.0002C18.8334 9.58908 18.5064 9.22783 18.0322 9.11491L14.2677 8.21866C13.5999 6.80868 12.1639 5.8335 10.5001 5.8335C8.83625 5.8335 7.40026 6.80869 6.73239 8.21866L2.96801 9.11491C2.49374 9.22783 2.16675 9.58908 2.16675 10.0002C2.16675 10.4112 2.49374 10.7725 2.96801 10.8854L6.73239 11.7817C7.40026 13.1917 8.83625 14.1668 10.5001 14.1668C12.1639 14.1668 13.5999 13.1917 14.2677 11.7817L18.0322 10.8854Z" stroke="#898C95" stroke-width="1.5" stroke-linecap="round" stroke-linejoin="round"/>
<path d="M10.4999 11.6668C11.4204 11.6668 12.1666 10.9207 12.1666 10.0002C12.1666 9.07966 11.4204 8.3335 10.4999 8.3335C9.57942 8.3335 8.83325 9.07966 8.83325 10.0002C8.83325 10.9207 9.57942 11.6668 10.4999 11.6668Z" stroke="#898C95" stroke-width="1.5" stroke-linecap="round" stroke-linejoin="round"/>
<path d="M13.0005 2.048C12.2113 1.80013 11.3715 1.6665 10.5005 1.6665C7.77417 1.6665 5.35359 2.97576 3.83325 4.99984M8.00053 17.9517C8.78973 18.1995 9.6295 18.3332 10.5005 18.3332C13.2265 18.3332 15.6468 17.0243 17.1672 15.0007" stroke="#898C95" stroke-width="1.5" stroke-linecap="round" stroke-linejoin="round"/>
</svg>
