<svg width="25" height="24" viewBox="0 0 25 24" fill="none" xmlns="http://www.w3.org/2000/svg">
<path fill-rule="evenodd" clip-rule="evenodd" d="M14.5 8C14.5 7.44772 14.9477 7 15.5 7H20.5C21.0523 7 21.5 7.44772 21.5 8V13C21.5 13.5523 21.0523 14 20.5 14C19.9477 14 19.5 13.5523 19.5 13V9H15.5C14.9477 9 14.5 8.55228 14.5 8Z" fill="#898C95"/>
<path d="M21.2071 7.29289C21.5976 7.68342 21.5976 8.31658 21.2071 8.70711L16.1688 13.7454C15.7605 14.1538 15.3934 14.521 15.0576 14.7851C14.6934 15.0714 14.2659 15.3198 13.7243 15.3686C13.5751 15.382 13.4249 15.382 13.2757 15.3686C12.7341 15.3198 12.3066 15.0714 11.9424 14.7851C11.6066 14.521 11.2395 14.1538 10.8312 13.7454C10.3723 13.2866 10.0517 12.9683 9.82128 12.7871C9.56256 12.5606 9.28511 12.6927 9.17872 12.7871C8.94831 12.9683 8.66593 13.2483 8.20711 13.7071L5.20711 16.7071C4.81658 17.0976 4.18342 17.0976 3.79289 16.7071C3.40237 16.3166 3.40237 15.6834 3.79289 15.2929L6.83116 12.2546C7.23952 11.8462 7.60664 11.479 7.94245 11.2149C8.3066 10.9286 8.73411 10.6802 9.27572 10.6314C9.42494 10.618 9.57506 10.618 9.72428 10.6314C10.2659 10.6802 10.6934 10.9286 11.0576 11.2149C11.3934 11.479 11.7605 11.8462 12.1688 12.2546C12.6277 12.7134 12.9483 13.0317 13.1787 13.2129C13.2902 13.3025 13.5748 13.4279 13.8213 13.2129C14.0517 13.0317 14.3341 12.7517 14.7929 12.2929L19.7929 7.29289C20.1834 6.90237 20.8166 6.90237 21.2071 7.29289Z" fill="#898C95"/>
</svg>
