<svg width="25" height="24" viewBox="0 0 25 24" fill="none" xmlns="http://www.w3.org/2000/svg">
<path d="M6.5 7.75C6.91421 7.75 7.25 8.08579 7.25 8.5V15.4657C7.52734 15.7578 8.20171 16.0807 8.91696 16.4442L11.75 17.884V12C11.75 11.5858 12.0858 11.25 12.5 11.25C12.9142 11.25 13.25 11.5858 13.25 12V17.884L16.083 16.4442C16.7983 16.0807 17.4599 15.6715 17.75 15.4657V8.5C17.75 8.08579 18.0858 7.75 18.5 7.75C18.9142 7.75 19.25 8.08579 19.25 8.5V15.5C19.25 16.1565 18.815 16.5792 18.4147 16.8632C18.0229 17.1411 17.4626 17.4258 16.8153 17.7547L13.6108 19.3832C13.4355 19.4723 13.2633 19.5599 13.1081 19.622C12.9326 19.6923 12.7331 19.75 12.5 19.75C12.2669 19.75 12.0674 19.6923 11.8919 19.622C11.7368 19.5599 11.5645 19.4723 11.3892 19.3832L8.18467 17.7547C7.53742 17.4258 6.97708 17.1411 6.58535 16.8632C6.185 16.5792 5.75 16.1565 5.75 15.5V8.5C5.75 8.08579 6.08579 7.75 6.5 7.75Z" fill="#898C95"/>
<path d="M11.8919 4.37796C12.0674 4.30767 12.2669 4.25 12.5 4.25C12.7331 4.25 12.9326 4.30767 13.1081 4.37796C13.2632 4.44011 13.4355 4.52769 13.6108 4.61679L16.8153 6.24533C17.4626 6.57421 18.0229 6.85892 18.4147 7.13681C18.815 7.42082 19.25 7.84354 19.25 8.5C19.25 9.15646 18.815 9.57918 18.4147 9.86319C18.0229 10.1411 17.4626 10.4258 16.8153 10.7547L13.6108 12.3832C13.4355 12.4723 13.2633 12.5599 13.1081 12.622C12.9326 12.6923 12.7331 12.75 12.5 12.75C12.2669 12.75 12.0674 12.6923 11.8919 12.622C11.7367 12.5599 11.5645 12.4723 11.3892 12.3832L8.23738 10.7815C7.59013 10.4526 6.97708 10.1411 6.58535 9.86319C6.185 9.57918 5.75 9.15646 5.75 8.5C5.75 7.84354 6.185 7.42082 6.58535 7.13681C6.97707 6.85893 7.53741 6.57421 8.18466 6.24534L11.3892 4.6168C11.5645 4.52769 11.7367 4.44011 11.8919 4.37796Z" fill="#898C95"/>
<path opacity="0.4" fill-rule="evenodd" clip-rule="evenodd" d="M12.5 2.75C12.3981 2.75 12.2856 2.78498 11.6366 3.09907L6.9425 5.37103C5.88118 5.88471 5.16237 6.23474 4.69881 6.54793C4.23657 6.86022 4.2491 6.99055 4.24996 6.99956C4.24996 6.99948 4.24999 6.99978 4.24996 6.99956L4.25 17C4.25 17.0001 4.25002 16.9998 4.25 17C4.24913 17.009 4.23657 17.1398 4.69881 17.4521C5.16237 17.7653 5.88118 18.1153 6.9425 18.629L11.6366 20.9009C12.2856 21.215 12.3981 21.25 12.5 21.25C12.6019 21.25 12.7144 21.215 13.3634 20.9009L18.0575 18.629C19.1188 18.1153 19.8376 17.7653 20.3012 17.4521C20.7634 17.1398 20.7509 17.0094 20.75 17.0004C20.75 17.0002 20.75 17.0005 20.75 17.0004V7C20.75 6.99992 20.75 7.00022 20.75 7C20.7509 6.991 20.7634 6.86022 20.3012 6.54793C19.8376 6.23474 19.1188 5.88471 18.0575 5.37103L13.3634 3.09907C12.7144 2.78498 12.6019 2.75 12.5 2.75ZM11.0863 1.69881C11.5653 1.46578 12.0088 1.25 12.5 1.25C12.9912 1.25 13.4347 1.46577 13.9137 1.69881C13.9479 1.71544 13.9823 1.73216 14.0169 1.7489L18.7676 4.04825C19.758 4.52758 20.5766 4.92375 21.1409 5.30501C21.7059 5.68673 22.25 6.20713 22.25 7V17C22.25 17.7929 21.7059 18.3133 21.1409 18.695C20.5766 19.0763 19.758 19.4724 18.7676 19.9518L14.0169 22.2511C13.9823 22.2678 13.9479 22.2846 13.9137 22.3012C13.4347 22.5342 12.9912 22.75 12.5 22.75C12.0088 22.75 11.5653 22.5342 11.0863 22.3012C11.0521 22.2846 11.0177 22.2678 10.9831 22.2511L6.23236 19.9517C5.24196 19.4724 4.42337 19.0762 3.85907 18.695C3.29407 18.3133 2.75 17.7929 2.75 17V7C2.75 6.20713 3.29407 5.68673 3.85907 5.30501C4.42338 4.92375 5.24197 4.52759 6.23239 4.04826C6.2512 4.03916 6.27008 4.03002 6.28901 4.02086L10.9831 1.7489C11.0177 1.73216 11.0521 1.71544 11.0863 1.69881Z" fill="#898C95"/>
</svg>
