<svg width="20" height="20" viewBox="0 0 20 20" fill="none" xmlns="http://www.w3.org/2000/svg">
<path d="M15.4942 6.82907C15.8647 7.102 15.9439 7.62366 15.671 7.99424C15.459 8.28208 15.247 8.55569 15.061 8.79402C14.6897 9.26969 14.1786 9.90685 13.6233 10.5464C13.0716 11.1818 12.4599 11.8387 11.8889 12.3433C11.6043 12.5947 11.3101 12.8259 11.0233 12.9989C10.7594 13.1579 10.3967 13.3334 9.99996 13.3334C9.60321 13.3334 9.24046 13.1579 8.97654 12.9989C8.68971 12.8259 8.39562 12.5947 8.11104 12.3433C7.53997 11.8387 6.92827 11.1818 6.37657 10.5464C5.82127 9.90685 5.31017 9.26969 4.93891 8.79402C4.75293 8.55569 4.54089 8.28208 4.3289 7.99425C4.05597 7.62366 4.13513 7.102 4.50571 6.82907C4.65467 6.71935 4.82806 6.66655 4.99989 6.66669H9.99996H15C15.1718 6.66655 15.3452 6.71935 15.4942 6.82907Z" fill="black"/>
</svg>
