<svg width="80" height="80" viewBox="0 0 80 80" fill="none" xmlns="http://www.w3.org/2000/svg">
<path d="M77.2525 33.0428C77.0439 32.8714 75.1659 31.4668 71.1319 31.4668C70.0886 31.4668 69.0104 31.5696 67.9672 31.7409C67.2021 26.4992 62.7855 23.964 62.6116 23.827L61.5335 23.2102L60.838 24.2038C59.9686 25.54 59.3078 27.0474 58.9253 28.5891C58.195 31.5696 58.6471 34.3789 60.1772 36.777C58.3341 37.8049 55.3433 38.0447 54.7174 38.0789H5.33454C4.04785 38.0789 3.00453 39.1068 3.00453 40.3743C2.93507 44.6225 3.6653 48.8707 5.16076 52.879C6.86472 57.2643 9.4035 60.5189 12.6725 62.506C16.3588 64.7328 22.3751 66.0004 29.1565 66.0004C32.2169 66.0004 35.2771 65.7264 38.3028 65.1782C42.5106 64.4244 46.5447 62.9856 50.2659 60.8958C53.3154 59.1542 56.0633 56.9331 58.4036 54.318C62.3333 49.967 64.6634 45.1022 66.3673 40.7855H67.0628C71.3404 40.7855 73.9834 39.1068 75.444 37.6678C76.4177 36.777 77.148 35.6808 77.6697 34.4475L77.9828 33.5567L77.2525 33.0428Z" fill="#0091E2"/>
<path d="M9.92517 36.6732H16.5327C16.8457 36.6732 17.124 36.4335 17.124 36.091V30.2669C17.124 29.9585 16.8805 29.6845 16.5327 29.6845H9.92517C9.61221 29.6845 9.33398 29.9242 9.33398 30.2669V36.091C9.36872 36.4335 9.61221 36.6734 9.92517 36.6734V36.6732ZM19.0366 36.6732H25.6442C25.9571 36.6732 26.2354 36.4335 26.2354 36.091V30.2669C26.2354 29.9585 25.9919 29.6845 25.6442 29.6845H19.0364C18.7235 29.6845 18.4453 29.9242 18.4453 30.2669V36.091C18.4801 36.4335 18.7236 36.6734 19.0364 36.6734M28.3218 36.6734H34.9294C35.2423 36.6734 35.5206 36.4335 35.5206 36.091V30.2669C35.5206 29.9585 35.2771 29.6845 34.9294 29.6845H28.3218C28.0088 29.6845 27.7306 29.9242 27.7306 30.2669V36.091C27.7306 36.4335 27.9741 36.6734 28.3218 36.6734ZM37.468 36.6734H44.0756C44.3886 36.6734 44.6668 36.4335 44.6668 36.091V30.2669C44.6668 29.9585 44.4233 29.6845 44.0756 29.6845H37.468C37.1551 29.6845 36.8768 29.9242 36.8768 30.2669V36.091C36.8768 36.4335 37.1551 36.6734 37.468 36.6734ZM19.0366 28.3483H25.6441C25.957 28.3483 26.2352 28.0743 26.2352 27.766V21.9418C26.2352 21.6334 25.9917 21.3593 25.6441 21.3593H19.0364C18.7235 21.3593 18.4453 21.5991 18.4453 21.9418V27.766C18.4801 28.0742 18.7237 28.3483 19.0366 28.3483ZM28.3218 28.3483H34.9294C35.2423 28.3483 35.5206 28.0743 35.5206 27.766V21.9418C35.5206 21.6334 35.2771 21.3593 34.9294 21.3593H28.3218C28.0088 21.3593 27.7306 21.5991 27.7306 21.9418V27.766C27.7306 28.0742 27.9741 28.3483 28.3218 28.3483ZM37.468 28.3483H44.0756C44.3886 28.3483 44.6668 28.0743 44.6668 27.766V21.9418C44.6668 21.6334 44.3885 21.3593 44.0756 21.3593H37.468C37.1551 21.3593 36.8768 21.5991 36.8768 21.9418V27.766C36.8768 28.0742 37.1551 28.3483 37.468 28.3483ZM37.468 19.989H44.0756C44.3886 19.989 44.6668 19.7492 44.6668 19.4066V13.5825C44.6668 13.2741 44.3885 13 44.0756 13H37.468C37.1551 13 36.8768 13.2398 36.8768 13.5825V19.4066C36.8768 19.7149 37.1551 19.989 37.468 19.989ZM46.6837 36.6734H53.2913C53.6043 36.6734 53.8825 36.4335 53.8825 36.091V30.2669C53.8825 29.9585 53.6392 29.6845 53.2913 29.6845H46.6839C46.3708 29.6845 46.0925 29.9242 46.0925 30.2669V36.091C46.1274 36.4335 46.3709 36.6734 46.6839 36.6734" fill="#0091E2"/>
</svg>
