<svg width="95" height="77" viewBox="0 0 95 77" fill="none" xmlns="http://www.w3.org/2000/svg">
<path d="M90.5 21.2C92.7644 21.2 94.6 19.3644 94.6 17.1C94.6 14.8356 92.7644 13 90.5 13C88.2356 13 86.4 14.8356 86.4 17.1C86.4 19.3644 88.2356 21.2 90.5 21.2Z" fill="#97AEF3"/>
<path d="M83.5 5.6C85.0464 5.6 86.3 4.3464 86.3 2.8C86.3 1.2536 85.0464 0 83.5 0C81.9536 0 80.7 1.2536 80.7 2.8C80.7 4.3464 81.9536 5.6 83.5 5.6Z" fill="#97AEF3"/>
<path d="M12.2 17.6C13.7464 17.6 15 16.3464 15 14.8C15 13.2536 13.7464 12 12.2 12C10.6536 12 9.39999 13.2536 9.39999 14.8C9.39999 16.3464 10.6536 17.6 12.2 17.6Z" fill="#97AEF3"/>
<path d="M5.59999 57.4C8.47187 57.4 10.8 55.0719 10.8 52.2C10.8 49.3281 8.47187 47 5.59999 47C2.72811 47 0.399994 49.3281 0.399994 52.2C0.399994 55.0719 2.72811 57.4 5.59999 57.4Z" fill="#97AEF3"/>
<g opacity="0.4">
<path fill-rule="evenodd" clip-rule="evenodd" d="M25.5458 14.252C23.9625 15.6558 22.65 17.5913 22.65 20V34.9629C22.65 37.7972 23.1101 39.3911 25.5242 40.9721C26.4997 41.6111 27.5934 42.2165 28.8024 42.7856C34.6906 45.5564 42.4839 47 49.65 47C52.0671 47 54.5556 46.8359 57.018 46.5119C57.7608 46.4141 58.1322 46.3652 58.4802 46.2263C58.8285 46.0874 59.2473 45.7835 60.0849 45.1754C63.0519 43.0208 66.7026 41.75 70.65 41.75C72.0084 41.75 72.6132 41.7335 73.7757 40.9721C76.1898 39.3911 76.65 37.7972 76.65 34.9629V20C76.65 17.5913 75.3375 15.6558 73.7541 14.252C72.1674 12.8451 70.0422 11.7152 67.674 10.8271C62.9151 9.04247 56.5419 8 49.65 8C42.7581 8 36.385 9.04247 31.6261 10.8271C29.2577 11.7152 27.1327 12.8451 25.5458 14.252ZM29.5263 21.2584C30.3157 21.9584 31.5865 22.7135 33.3694 23.4153C33.4624 23.452 33.5713 23.4851 33.6855 23.5199C34.0093 23.6186 34.3758 23.7302 34.5424 23.9695C34.65 24.1241 34.65 24.3307 34.65 24.744V30.5C34.65 32.1568 35.9932 33.5 37.65 33.5C39.3068 33.5 40.65 32.1568 40.65 30.5V26.7184C40.65 26.0674 40.65 25.7418 40.8546 25.5626C41.0592 25.3833 41.3875 25.4268 42.044 25.5139C44.3991 25.8261 46.9587 26 49.65 26C56.013 26 61.6398 25.0277 65.5671 23.555C67.542 22.8144 68.9316 22.005 69.7737 21.2584C70.8438 20.3097 70.8438 19.6903 69.7737 18.7416C68.9316 17.995 67.542 17.1856 65.5671 16.445C61.6398 14.9723 56.013 14 49.65 14C43.2871 14 37.6602 14.9723 33.7328 16.445C31.7581 17.1856 30.3684 17.995 29.5263 18.7416C28.4562 19.6903 28.4562 20.3097 29.5263 21.2584Z" fill="#97AEF3"/>
<path d="M53.0526 52.9036C53.4858 52.8796 53.7027 52.8676 53.799 52.996C53.8953 53.1244 53.8215 53.3329 53.6742 53.7499C53.0109 55.6264 52.65 57.646 52.65 59.7499C52.65 64.2397 54.294 68.3458 57.0126 71.4988C57.7767 72.3847 58.1586 72.8278 58.0242 73.1659C57.8895 73.504 57.3474 73.5592 56.2632 73.6696C54.1413 73.8859 51.924 73.9993 49.65 73.9993C42.7581 73.9993 36.385 72.9568 31.6261 71.1724C29.2577 70.2841 27.1327 69.1543 25.5458 67.7473C23.9625 66.3436 22.65 64.408 22.65 61.9993V48.4294C22.65 47.4751 22.65 46.9978 22.9426 46.8235C23.2352 46.6489 23.6676 46.8823 24.5324 47.3491C25.0954 47.653 25.6681 47.941 26.2476 48.2137C28.5706 49.3069 31.105 50.2084 33.7455 50.9227C34.1837 51.0412 34.4029 51.1006 34.5265 51.262C34.65 51.4234 34.65 51.6469 34.65 52.0939V57.4999C34.65 59.1568 35.9932 60.4999 37.65 60.4999C39.3068 60.4999 40.65 59.1568 40.65 57.4999V53.7292C40.65 53.0866 40.65 52.7653 40.8525 52.5862C41.055 52.4071 41.3782 52.447 42.0247 52.5265C44.5965 52.843 47.1671 52.9993 49.65 52.9993C50.769 52.9993 51.906 52.9675 53.0526 52.9036Z" fill="#97AEF3"/>
</g>
<path fill-rule="evenodd" clip-rule="evenodd" d="M84.15 59.75C84.15 67.2059 78.1059 73.25 70.65 73.25C63.1941 73.25 57.15 67.2059 57.15 59.75C57.15 52.2941 63.1941 46.25 70.65 46.25C78.1059 46.25 84.15 52.2941 84.15 59.75ZM72.9 55.25C72.9 54.0074 71.8926 53 70.65 53C69.4074 53 68.4 54.0074 68.4 55.25V57.5H66.15C64.9074 57.5 63.9 58.5074 63.9 59.75C63.9 60.9926 64.9074 62 66.15 62H68.4V64.25C68.4 65.4926 69.4074 66.5 70.65 66.5C71.8926 66.5 72.9 65.4926 72.9 64.25V62H75.15C76.3926 62 77.4 60.9926 77.4 59.75C77.4 58.5074 76.3926 57.5 75.15 57.5H72.9V55.25Z" fill="#97AEF3"/>
</svg>
