<svg width="20" height="20" viewBox="0 0 20 20" fill="none" xmlns="http://www.w3.org/2000/svg">
<path d="M5.78045 18.8728C6.59899 18.9585 7.06801 18.9585 8.35225 18.9585C8.80208 18.9585 9.16667 18.5938 9.16667 18.144C9.16667 17.6943 8.80208 17.3296 8.35225 17.3296C7.01174 17.3296 6.67321 17.3285 5.94867 17.2528C5.23707 17.1783 4.83379 17.0394 4.5356 16.8285C4.33439 16.6862 4.15741 16.5186 4.00925 16.3316C3.79628 16.0629 3.65508 15.7022 3.57822 15.0466C3.49911 14.3718 3.49779 13.4907 3.49779 12.2211L3.49773 9.80429C3.49771 9.58179 3.49785 9.0497 3.7317 8.6562C3.87581 8.4137 4.06033 8.21112 4.24987 8.10793C4.55529 7.94167 4.90545 7.8472 5.27768 7.8472L6.14465 7.87761C6.46139 7.88418 6.83101 7.87418 7.1878 7.77858C7.88278 7.59236 8.42558 7.04952 8.61183 6.35454C8.70742 5.99775 8.71742 5.62814 8.71083 5.31139L8.68042 4.44442C8.68042 4.05468 8.78408 3.7154 8.96525 3.40006C9.07083 3.21624 9.25475 3.04799 9.50875 2.90024C9.89383 2.67614 10.355 2.67407 10.6368 2.6728C10.9186 2.67153 11.2159 2.67055 11.4643 2.67055C12.9928 2.67055 13.5487 2.68218 13.9682 2.82997C14.6953 3.08619 15.2501 3.62089 15.5085 4.27536C15.5732 4.43923 15.6189 4.65458 15.6434 5.02787C15.6684 5.40843 15.6688 5.89422 15.6688 6.59444V9.1887C15.6688 9.63679 16.0322 10.0001 16.4803 10.0001C16.9284 10.0001 17.2917 9.63679 17.2917 9.1887V6.56679C17.2917 5.90082 17.2917 5.36119 17.2628 4.9207C17.2329 4.46684 17.1699 4.06212 17.0172 3.67532C16.5765 2.55923 15.6528 1.69734 14.5057 1.29317C13.79 1.04101 12.5633 1.04134 11.2674 1.04179C8.90108 1.04149 7.49554 1.04131 6.34351 1.44721C4.49351 2.09903 3.0154 3.48464 2.31258 5.26469C2.07831 5.85799 1.97453 6.49525 1.92433 7.25929C1.875 8.00988 1.875 8.93704 1.875 10.119V12.2719C1.87498 13.4786 1.87497 14.4559 1.96654 15.237C2.06163 16.0481 2.26434 16.7464 2.7392 17.3455C2.98518 17.656 3.27564 17.93 3.60095 18.16C4.22158 18.5989 4.93927 18.7848 5.78045 18.8728Z" fill="#97AEF3"/>
<path d="M14.689 11.2952C15.2744 10.9572 15.9958 10.9572 16.5813 11.2952C16.7993 11.4212 17.0443 11.6667 17.2719 11.8947C17.5 12.1223 17.7455 12.3673 17.8713 12.5853C18.2093 13.1708 18.2093 13.8922 17.8713 14.4777C17.7455 14.6957 17.5498 14.8908 17.3217 15.1185L14.5153 17.9248C14.1276 18.3126 13.6593 18.4937 13.2387 18.6012C13.0287 18.6547 12.8177 18.693 12.6263 18.7261C12.4688 18.753 12.1891 18.8025 12.05 18.8322C11.795 18.8869 11.5398 18.9415 11.3288 18.9549C11.0963 18.9697 10.7593 18.9469 10.4895 18.6771C10.2197 18.4073 10.1969 18.0702 10.2117 17.8377C10.2251 17.6267 10.2798 17.3716 10.3343 17.1166C10.3641 16.9775 10.4136 16.6977 10.4406 16.5403C10.4736 16.3489 10.5118 16.1379 10.5654 15.9279C10.6728 15.5072 10.8541 15.039 11.2418 14.6512L14.0482 11.8448C14.2758 11.6167 14.471 11.4212 14.689 11.2952Z" fill="#97AEF3"/>
</svg>
