<svg width="80" height="80" viewBox="0 0 80 80" fill="none" xmlns="http://www.w3.org/2000/svg">
<g clip-path="url(#clip0_48_293)">
<path d="M44.2861 16.9995V26.9991L61.4304 36.9987V26.9991L44.2861 16.9995ZM10 26.9991V36.9987L18.5722 41.9985V31.9989L10 26.9991ZM35.7139 31.9989L27.1418 36.9987V66.9975L35.7139 71.9999V52.0007L44.2861 57.0005V47.0009L35.7139 42.0011V31.9989Z" fill="#E55B2D"/>
<path d="M44.2862 16.9995L18.5723 31.9989V41.9985L35.7166 31.9989V41.9985L44.2888 36.9987V16.9995H44.2862ZM70.0001 21.9993L61.4279 26.9991V36.9987L70.0001 31.9989V21.9993ZM52.8583 42.0011L44.2862 47.0009V57.0005L52.8583 52.0007V42.0011ZM44.2862 57.0005L35.714 52.0007V71.9999L44.2862 67.0001V57.0005Z" fill="#ED8E24"/>
<path d="M44.2861 7L10 26.9992L18.5722 31.999L44.2861 16.9996L61.4304 26.9992L70.0026 21.9994L44.2861 7ZM44.2861 36.9988L35.7139 41.9986L44.2861 46.9984L52.8583 41.9986L44.2861 36.9988Z" fill="#F8BF3C"/>
</g>
<defs>
<clipPath id="clip0_48_293">
<rect width="60" height="65" fill="white" transform="translate(10 7)"/>
</clipPath>
</defs>
</svg>
