<svg width="40" height="40" viewBox="0 0 40 40" fill="none" xmlns="http://www.w3.org/2000/svg">
<rect width="40" height="40" rx="8" fill="#97AEF3"/>
<path fill-rule="evenodd" clip-rule="evenodd" d="M23.9686 9.25098L24.6528 11.9152C24.7487 12.2887 24.6213 12.6841 24.3254 12.9314C24.0294 13.1786 23.6177 13.2337 23.2672 13.0728C22.2759 12.618 21.1696 12.3634 20 12.3634C15.7074 12.3634 12.25 15.7946 12.25 19.9998C12.25 21.4732 12.6726 22.8471 13.4053 24.0132L11.7118 25.0772C10.7854 23.6028 10.25 21.8619 10.25 19.9998C10.25 14.6654 14.6276 10.3634 20 10.3634C20.7758 10.3634 21.5313 10.4531 22.256 10.6228L22.0314 9.74847L23.9686 9.25098ZM27.75 19.9998C27.75 18.5263 27.3275 17.1524 26.5947 15.9863L28.2882 14.9222C29.2146 16.3966 29.75 18.1376 29.75 19.9998C29.75 25.3341 25.3724 29.6361 20 29.6361C19.2242 29.6361 18.4687 29.5464 17.744 29.3766L17.9686 30.251L16.0314 30.7485L15.3472 28.0843C15.2513 27.7108 15.3787 27.3154 15.6746 27.0681C15.9706 26.8209 16.3823 26.7658 16.7328 26.9266C17.7241 27.3815 18.8304 27.6361 20 27.6361C24.2926 27.6361 27.75 24.2049 27.75 19.9998Z" fill="#01040B"/>
</svg>
