<svg width="20" height="20" viewBox="0 0 20 20" fill="none" xmlns="http://www.w3.org/2000/svg">
<path fill-rule="evenodd" clip-rule="evenodd" d="M15.8177 3.87465C12.1379 2.04165 7.86272 2.04169 4.18286 3.87466C3.2135 4.35751 2.97913 4.49691 2.74984 4.86729C2.52659 5.22789 2.50026 5.59586 2.50026 6.96309V13.0369C2.50026 14.4043 2.5266 14.7722 2.74986 15.1328C2.97918 15.5033 3.21356 15.6426 4.18301 16.1254C7.86276 17.9581 12.1378 17.9581 15.8175 16.1254C16.787 15.6426 17.0214 15.5033 17.2506 15.1328C17.474 14.7722 17.5003 14.4043 17.5003 13.0369V6.96304C17.5003 5.59584 17.474 5.22788 17.2507 4.86728C17.0214 4.49689 16.787 4.3575 15.8177 3.87465ZM3.43976 2.38282C7.58759 0.316758 12.413 0.316701 16.5608 2.38282C16.5934 2.39904 16.6256 2.41509 16.6577 2.43102C17.5029 2.85124 18.1673 3.18158 18.6678 3.98999C19.169 4.79974 19.1682 5.6729 19.167 6.79833C19.167 6.85264 19.167 6.90754 19.167 6.96304V13.0369C19.167 13.0924 19.167 13.1473 19.167 13.2016C19.1682 14.3272 19.169 15.2003 18.6677 16.0102C18.1672 16.8186 17.5027 17.1489 16.6574 17.5691C16.6254 17.585 16.593 17.6011 16.5605 17.6173C12.4129 19.683 7.58768 19.683 3.43999 17.6173C3.40744 17.6011 3.37515 17.585 3.34311 17.5691C2.49782 17.1489 1.83332 16.8186 1.3328 16.0102C0.831449 15.2003 0.832337 14.3272 0.833482 13.2017C0.83354 13.1473 0.83359 13.0924 0.83359 13.0369V6.96309C0.83359 6.90759 0.83354 6.85269 0.833482 6.79839C0.832337 5.67294 0.831449 4.79975 1.33275 3.99C1.83323 3.18158 2.49767 2.85124 3.34289 2.43101C3.37492 2.41509 3.40721 2.39904 3.43976 2.38282Z" fill="white"/>
<path d="M3.95837 6.45841C3.95837 5.53794 4.70457 4.79175 5.62504 4.79175C6.54552 4.79175 7.29171 5.53794 7.29171 6.45841C7.29171 7.37889 6.54552 8.12508 5.62504 8.12508C4.70457 8.12508 3.95837 7.37889 3.95837 6.45841Z" fill="white"/>
<path fill-rule="evenodd" clip-rule="evenodd" d="M3.45394 10.419C5.85127 10.371 8.19466 11.1017 10.0667 12.4887C11.7953 13.7695 13.0206 15.5355 13.5533 17.5174C13.6026 17.7006 13.5642 17.8958 13.4489 18.0481C13.3336 18.2004 13.1538 18.2933 12.9602 18.3007C12.1092 18.3334 11.1183 18.3334 9.97166 18.3334H9.91216C8.04521 18.3334 6.5788 18.3334 5.43391 18.1829C5.23131 18.1007 5.03305 18.0233 4.83943 17.9477C4.02421 17.6296 3.29098 17.3435 2.66081 16.8634C2.02516 16.2418 1.62761 15.607 1.44705 14.6607C1.27021 13.7341 1.23384 12.5853 1.2256 11.1581C1.22379 10.8463 1.4573 10.5809 1.77288 10.536C2.32893 10.4571 2.89098 10.4179 3.45394 10.419ZM12.5759 13.0902C12.3804 12.867 12.4569 12.5167 12.7431 12.4269C13.4736 12.1975 14.2217 12.0807 14.9785 12.0835C16.1001 12.0825 17.207 12.3475 18.2666 12.8588C18.5002 12.9715 18.6405 13.2116 18.6211 13.4657C18.5057 14.9772 18.1452 16.0741 17.2617 16.938C16.4444 17.4957 15.8206 17.8167 14.7899 17.986C14.8689 17.6817 14.8736 17.5108 14.7899 17.1995C14.3821 15.6823 13.6206 14.2828 12.5759 13.0902Z" fill="white"/>
</svg>
