<svg width="80" height="80" viewBox="0 0 80 80" fill="none" xmlns="http://www.w3.org/2000/svg">
<g clip-path="url(#clip0_48_271)">
<path d="M76.4905 65.2886C76.4905 66.0754 75.9154 66.6034 75.2345 66.6034V66.5986C74.5343 66.6034 73.9698 66.0753 73.9698 65.2888C73.9698 64.5024 74.5343 63.9758 75.2345 63.9758C75.9156 63.9756 76.4905 64.5022 76.4905 65.2886ZM77 65.2886C77 64.2086 76.165 63.5819 75.2345 63.5819C74.2976 63.5819 73.4626 64.2086 73.4626 65.2886C73.4626 66.3677 74.2978 66.9969 75.2345 66.9969C76.165 66.9969 77 66.3677 77 65.2886ZM74.9417 65.4329H75.1307L75.5687 66.2055H76.0496L75.5644 65.4004C75.8151 65.3824 76.0213 65.2627 76.0213 64.9236C76.0213 64.5022 75.732 64.367 75.2424 64.367H74.5339V66.2055H74.9412L74.9417 65.4329ZM74.9417 65.1216V64.6791H75.225C75.3791 64.6791 75.5891 64.6916 75.5891 64.8805C75.5891 65.0858 75.4804 65.1216 75.2987 65.1216H74.9417ZM65.1106 55.8825L67.3118 61.9315H62.8412L65.1106 55.8825ZM62.7531 53.5271L57.6803 66.438H61.2622L62.0646 64.1565H68.0679L68.8272 66.438H72.7159L67.6053 53.5255L62.7531 53.5271ZM52.5687 66.4428H56.2029V53.5232L52.5681 53.5223L52.5687 66.4428ZM27.3394 53.5223L24.3073 63.7621L21.4028 53.5232L17.4815 53.5223L21.6298 66.4428H26.8654L31.0471 53.5223H27.3394ZM42.0293 56.3357H43.5915C45.8573 56.3357 47.3231 57.3576 47.3231 60.0097C47.3231 62.6622 45.8573 63.6843 43.5915 63.6843H42.0293V56.3357ZM38.4257 53.5223V66.4428H44.3172C47.4563 66.4428 48.4815 65.9187 49.5898 64.743C50.3726 63.9174 50.879 62.1053 50.879 60.1248C50.879 58.3082 50.4505 56.6887 49.7034 55.6797C48.3575 53.8754 46.4184 53.5223 43.5242 53.5223H38.4257ZM4 53.5044V66.4428H7.66496V56.6186L10.5047 56.6194C11.445 56.6194 12.1152 56.855 12.568 57.3407C13.1423 57.9552 13.3768 58.9471 13.3768 60.7616V66.4428H16.9282V59.2942C16.9282 54.1923 13.6909 53.5044 10.5234 53.5044H4ZM32.5767 53.5223L32.5781 66.4428H36.2107V53.5223H32.5767Z" fill="white"/>
<path d="M13.7668 27.7964C13.7668 27.7964 18.441 20.8688 27.7738 20.1521V17.6388C17.4365 18.4728 8.48486 27.2675 8.48486 27.2675C8.48486 27.2675 13.5549 41.9902 27.7738 43.3384V40.667C17.3393 39.3483 13.7668 27.7964 13.7668 27.7964ZM27.7738 35.3541V37.8008C19.8877 36.3883 17.6987 28.1538 17.6987 28.1538C17.6987 28.1538 21.4851 23.9402 27.7738 23.2569V25.9416C27.769 25.9416 27.7657 25.9401 27.7618 25.9401C24.4611 25.5422 21.8827 28.6395 21.8827 28.6395C21.8827 28.6395 23.3279 33.8535 27.7738 35.3541ZM27.7738 13.0032V17.6388C28.0773 17.6154 28.3807 17.5956 28.6858 17.5852C40.4382 17.1873 48.0957 27.2675 48.0957 27.2675C48.0957 27.2675 39.3008 38.0101 30.1381 38.0101C29.2984 38.0101 28.5122 37.9319 27.7738 37.8004V40.667C28.4269 40.7513 29.0846 40.7939 29.7431 40.7946C38.2696 40.7946 44.4357 36.4204 50.4064 31.2434C51.3963 32.0398 55.449 33.9772 56.2821 34.8252C50.6052 39.5998 37.3745 43.4484 29.8737 43.4484C29.1507 43.4484 28.4563 43.4046 27.7738 43.3384V47.3663H60.1824V13.0032H27.7738ZM27.7738 23.2569V20.1521C28.0741 20.131 28.3768 20.115 28.6858 20.1052C37.1369 19.8385 42.6814 27.4004 42.6814 27.4004C42.6814 27.4004 36.6929 35.7549 30.2719 35.7549C29.3478 35.7549 28.5193 35.6057 27.7736 35.3539V25.9413C31.0636 26.3407 31.7258 27.8006 33.7038 31.1128L38.1032 27.3866C38.1032 27.3866 34.8919 23.156 29.4784 23.156C28.8898 23.1557 28.3267 23.1975 27.7738 23.2569Z" fill="#77B900"/>
</g>
<defs>
<clipPath id="clip0_48_271">
<rect width="73" height="54" fill="white" transform="translate(4 13)"/>
</clipPath>
</defs>
</svg>
