<svg width="20" height="20" viewBox="0 0 20 20" fill="none" xmlns="http://www.w3.org/2000/svg">
<path fill-rule="evenodd" clip-rule="evenodd" d="M1.66663 5.83333C1.66663 5.3731 2.03973 5 2.49996 5H4.99996C5.46019 5 5.83329 5.3731 5.83329 5.83333C5.83329 6.29357 5.46019 6.66667 4.99996 6.66667H2.49996C2.03973 6.66667 1.66663 6.29357 1.66663 5.83333Z" fill="white"/>
<path opacity="0.4" fill-rule="evenodd" clip-rule="evenodd" d="M1.66663 14.1668C1.66663 13.7066 2.03973 13.3335 2.49996 13.3335H7.49996C7.96019 13.3335 8.33329 13.7066 8.33329 14.1668C8.33329 14.6271 7.96019 15.0002 7.49996 15.0002H2.49996C2.03973 15.0002 1.66663 14.6271 1.66663 14.1668Z" fill="white"/>
<path fill-rule="evenodd" clip-rule="evenodd" d="M14.1666 14.1668C14.1666 13.7066 14.5397 13.3335 15 13.3335H17.5C17.9602 13.3335 18.3333 13.7066 18.3333 14.1668C18.3333 14.6271 17.9602 15.0002 17.5 15.0002H15C14.5397 15.0002 14.1666 14.6271 14.1666 14.1668Z" fill="white"/>
<path opacity="0.4" fill-rule="evenodd" clip-rule="evenodd" d="M11.6666 5.83333C11.6666 5.3731 12.0397 5 12.5 5H17.5C17.9602 5 18.3333 5.3731 18.3333 5.83333C18.3333 6.29357 17.9602 6.66667 17.5 6.66667H12.5C12.0397 6.66667 11.6666 6.29357 11.6666 5.83333Z" fill="white"/>
<path fill-rule="evenodd" clip-rule="evenodd" d="M7.47896 2.7085H7.52104C7.89143 2.70849 8.20063 2.70849 8.4545 2.7258C8.71875 2.74384 8.96833 2.7827 9.21033 2.88294C9.77183 3.11553 10.218 3.56165 10.4506 4.12318C10.5508 4.36517 10.5897 4.61478 10.6077 4.87903C10.625 5.13287 10.625 5.44206 10.625 5.81245V5.85455C10.625 6.22493 10.625 6.53412 10.6077 6.78797C10.5897 7.05222 10.5508 7.30182 10.4506 7.54381C10.218 8.10534 9.77183 8.5515 9.21033 8.78408C8.96833 8.88433 8.71875 8.92316 8.4545 8.94116C8.20063 8.9585 7.89143 8.9585 7.52105 8.9585H7.47895C7.10857 8.9585 6.79938 8.9585 6.54553 8.94116C6.28128 8.92316 6.03168 8.88433 5.78968 8.78408C5.22816 8.5515 4.78203 8.10534 4.54944 7.54381C4.44921 7.30182 4.41034 7.05222 4.39231 6.78797C4.37499 6.53412 4.37499 6.22492 4.375 5.85454V5.81245C4.37499 5.44207 4.37499 5.13287 4.39231 4.87903C4.41034 4.61478 4.44921 4.36517 4.54944 4.12318C4.78203 3.56165 5.22816 3.11553 5.78968 2.88294C6.03168 2.7827 6.28128 2.74384 6.54553 2.7258C6.79938 2.70849 7.10858 2.70849 7.47896 2.7085Z" fill="white"/>
<path fill-rule="evenodd" clip-rule="evenodd" d="M12.4789 11.0415H12.5211C12.8914 11.0415 13.2007 11.0415 13.4545 11.0588C13.7187 11.0768 13.9683 11.1157 14.2103 11.2159C14.7718 11.4485 15.218 11.8947 15.4506 12.4562C15.5508 12.6982 15.5897 12.9478 15.6077 13.212C15.625 13.4658 15.625 13.7751 15.625 14.1454V14.1876C15.625 14.5579 15.625 14.8672 15.6077 15.121C15.5897 15.3853 15.5508 15.6348 15.4506 15.8768C15.218 16.4383 14.7718 16.8845 14.2103 17.1171C13.9683 17.2173 13.7187 17.2562 13.4545 17.2742C13.2007 17.2915 12.8914 17.2915 12.5211 17.2915H12.4789C12.1086 17.2915 11.7993 17.2915 11.5455 17.2742C11.2812 17.2562 11.0317 17.2173 10.7897 17.1171C10.2282 16.8845 9.782 16.4383 9.54942 15.8768C9.44917 15.6348 9.41033 15.3853 9.39233 15.121C9.375 14.8672 9.375 14.5579 9.375 14.1876V14.1454C9.375 13.7751 9.375 13.4658 9.39233 13.212C9.41033 12.9478 9.44917 12.6982 9.54942 12.4562C9.782 11.8947 10.2282 11.4485 10.7897 11.2159C11.0317 11.1157 11.2812 11.0768 11.5455 11.0588C11.7993 11.0415 12.1086 11.0415 12.4789 11.0415Z" fill="white"/>
</svg>
