<svg width="80" height="80" viewBox="0 0 80 80" fill="none" xmlns="http://www.w3.org/2000/svg">
<g clip-path="url(#clip0_48_338)">
<path d="M67.6401 38.58C68.2642 39.9819 68.6603 41.4806 68.8223 43.0094C68.9784 44.5383 68.9003 46.0853 68.5763 47.59C68.2582 49.0947 67.7061 50.5389 66.938 51.8684C66.4339 52.7567 65.8398 53.5906 65.1556 54.3581C64.4775 55.1195 63.7214 55.8084 62.8992 56.4127C62.071 57.017 61.1889 57.5246 60.2527 57.9415C59.3225 58.3524 58.3503 58.6667 57.3541 58.8721C56.886 60.3345 56.1899 61.7183 55.2897 62.9632C54.3956 64.208 53.3094 65.3018 52.0731 66.2022C50.8369 67.1086 49.4686 67.8096 48.0163 68.281C46.5641 68.7584 45.0458 68.994 43.5155 68.994C42.5013 69.0001 41.4811 68.8913 40.4849 68.6858C39.4947 68.4743 38.5225 68.1541 37.5924 67.7371C36.6622 67.3201 35.78 66.8004 34.9579 66.1962C34.1417 65.5919 33.3855 64.8969 32.7134 64.1295C31.2131 64.4558 29.6768 64.5343 28.1585 64.3772C26.6403 64.2141 25.152 63.8152 23.7537 63.1868C22.3614 62.5644 21.0712 61.7183 19.937 60.685C18.8028 59.6517 17.8366 58.4431 17.0744 57.1136C16.5643 56.2253 16.1442 55.2887 15.8262 54.3158C15.5081 53.3429 15.2981 52.3397 15.1901 51.3185C15.082 50.3033 15.088 49.276 15.1961 48.2547C15.3041 47.2395 15.5261 46.2364 15.8442 45.2635C14.824 44.1213 13.9838 42.8221 13.3597 41.4202C12.7416 40.0122 12.3395 38.5196 12.1835 36.9907C12.0215 35.4618 12.1055 33.9148 12.4235 32.4102C12.7416 30.9055 13.2937 29.4612 14.0618 28.1318C14.5659 27.2435 15.1601 26.4035 15.8382 25.6421C16.5163 24.8807 17.2785 24.1918 18.1006 23.5875C18.9228 22.9832 19.8109 22.4695 20.7411 22.0586C21.6773 21.6417 22.6495 21.3335 23.6457 21.128C24.1138 19.6596 24.8099 18.2818 25.7041 17.037C26.6042 15.7921 27.6905 14.6983 28.9267 13.7919C30.1629 12.8915 31.5312 12.1905 32.9835 11.7131C34.4357 11.2418 35.954 11.0001 37.4843 11.0061C38.4985 11.0001 39.5187 11.1028 40.5149 11.3143C41.5111 11.5258 42.4833 11.84 43.4135 12.257C44.3436 12.68 45.2258 13.1937 46.048 13.7979C46.8701 14.4083 47.6263 15.0972 48.2984 15.8646C49.7927 15.5443 51.329 15.4658 52.8473 15.6229C54.3656 15.78 55.8478 16.1849 57.2461 16.8073C58.6384 17.4358 59.9286 18.2758 61.0628 19.3091C62.1971 20.3364 63.1633 21.5389 63.9254 22.8744C64.4355 23.7567 64.8556 24.6933 65.1736 25.6723C65.4917 26.6452 65.7077 27.6483 65.8098 28.6696C65.9178 29.6908 65.9178 30.7181 65.8038 31.7394C65.6957 32.7606 65.4737 33.7638 65.1556 34.7367C66.1818 35.8788 67.016 37.172 67.6401 38.58ZM47.6443 64.3772C48.9525 63.8334 50.1408 63.0297 51.1429 62.0205C52.1451 61.0113 52.9433 59.8148 53.4834 58.4914C54.0235 57.1741 54.3056 55.76 54.3056 54.3339V40.8582C54.3016 40.8461 54.2976 40.832 54.2936 40.8159C54.2896 40.8038 54.2835 40.7917 54.2755 40.7796C54.2675 40.7675 54.2575 40.7575 54.2455 40.7494C54.2335 40.7373 54.2215 40.7293 54.2095 40.7252L49.3666 37.9092V54.1889C49.3666 54.352 49.3426 54.5212 49.3006 54.6783C49.2586 54.8415 49.1986 54.9926 49.1146 55.1376C49.0305 55.2826 48.9345 55.4156 48.8145 55.5304C48.6978 55.6475 48.5667 55.749 48.4244 55.8325L36.9562 62.4979C36.8602 62.5583 36.6982 62.6429 36.6142 62.6913C37.0883 63.0961 37.6044 63.4527 38.1445 63.7669C38.6906 64.0811 39.2547 64.347 39.8428 64.5646C40.4309 64.7761 41.037 64.9392 41.6491 65.048C42.2673 65.1568 42.8914 65.2112 43.5155 65.2112C44.9318 65.2112 46.336 64.9271 47.6443 64.3772ZM20.333 55.2282C21.0472 56.467 21.9894 57.5427 23.1116 58.4129C24.2398 59.283 25.518 59.9176 26.8863 60.2862C28.2546 60.6548 29.6828 60.7515 31.0871 60.5641C32.4914 60.3768 33.8416 59.9176 35.0719 59.2045L46.6661 52.4666L46.6961 52.4364C46.7041 52.4284 46.7101 52.4163 46.7141 52.4002C46.7221 52.3881 46.7281 52.376 46.7321 52.3639V46.6835L32.7374 54.8355C32.5934 54.9201 32.4434 54.9805 32.2873 55.0288C32.1253 55.0711 31.9633 55.0893 31.7952 55.0893C31.6332 55.0893 31.4712 55.0711 31.3092 55.0288C31.1531 54.9805 30.9971 54.9201 30.8531 54.8355L19.3849 48.1641C19.2828 48.1036 19.1328 48.013 19.0488 47.9586C18.9408 48.581 18.8868 49.2095 18.8868 49.838C18.8868 50.4664 18.9468 51.0949 19.0548 51.7173C19.1628 52.3337 19.3309 52.944 19.5409 53.5362C19.7569 54.1284 20.021 54.6965 20.333 55.2403V55.2282ZM17.3205 30.0292C16.6123 31.268 16.1562 32.6337 15.9702 34.0478C15.7842 35.4618 15.8802 36.894 16.2463 38.2778C16.6123 39.6556 17.2425 40.9428 18.1066 42.0788C18.9708 43.2089 20.045 44.1576 21.2692 44.8707L32.8574 51.6146C32.8695 51.6186 32.8835 51.6226 32.8995 51.6267H32.9415C32.9575 51.6267 32.9715 51.6226 32.9835 51.6146C32.9955 51.6105 33.0075 51.6045 33.0195 51.5964L37.8804 48.7684L23.8857 40.6346C23.7477 40.55 23.6157 40.4472 23.4957 40.3324C23.3794 40.215 23.2785 40.083 23.1956 39.9396C23.1176 39.7946 23.0516 39.6435 23.0096 39.4804C22.9676 39.3233 22.9435 39.1601 22.9496 38.9909V25.2674C22.3614 25.485 21.7913 25.7509 21.2512 26.0651C20.7111 26.3854 20.201 26.7479 19.7209 27.1528C19.2468 27.5577 18.8028 28.0049 18.4007 28.4883C17.9986 28.9657 17.6445 29.4854 17.3325 30.0292H17.3205ZM57.1261 39.3595C57.2701 39.4441 57.4021 39.5408 57.5222 39.6617C57.6362 39.7765 57.7382 39.9094 57.8222 40.0545C57.9002 40.1995 57.9663 40.3566 58.0083 40.5137C58.0443 40.6769 58.0683 40.84 58.0623 41.0092V54.7327C59.9886 54.0197 61.669 52.7688 62.9112 51.1251C64.1594 49.4814 64.9096 47.5175 65.0836 45.4629C65.2577 43.4083 64.8496 41.3416 63.9014 39.5106C62.9532 37.6796 61.5069 36.1568 59.7306 35.1295L48.1424 28.3856C48.1304 28.3815 48.1164 28.3775 48.1004 28.3735H48.0584C48.0464 28.3775 48.0324 28.3815 48.0163 28.3856C48.0043 28.3896 47.9923 28.3956 47.9803 28.4037L43.1434 31.2197L57.1381 39.3595H57.1261ZM61.957 32.0476H61.951V32.0536L61.957 32.0476ZM61.951 32.0415C62.2991 30.0111 62.065 27.9203 61.2729 26.0167C60.4867 24.1132 59.1725 22.4756 57.4922 21.2912C55.8118 20.1128 53.8315 19.436 51.7851 19.3453C49.7327 19.2607 47.7043 19.7623 45.9279 20.7896L34.3397 27.5275C34.3277 27.5355 34.3177 27.5456 34.3097 27.5577L34.2857 27.5939C34.2817 27.606 34.2777 27.6201 34.2737 27.6362C34.2697 27.6483 34.2677 27.6624 34.2677 27.6785V33.3106L48.2624 25.1707C48.4064 25.0861 48.5625 25.0257 48.7185 24.9774C48.8805 24.9351 49.0425 24.9169 49.2046 24.9169C49.3726 24.9169 49.5346 24.9351 49.6967 24.9774C49.8527 25.0257 50.0027 25.0861 50.1468 25.1707L61.615 31.8421C61.717 31.9025 61.867 31.9872 61.951 32.0415ZM31.6272 25.8052C31.6272 25.6421 31.6512 25.4789 31.6932 25.3158C31.7352 25.1586 31.7952 25.0015 31.8793 24.8565C31.9633 24.7175 32.0593 24.5846 32.1793 24.4637C32.2933 24.3489 32.4254 24.2462 32.5694 24.1676L44.0376 17.5023C44.1456 17.4358 44.2956 17.3512 44.3797 17.3089C42.8074 15.9855 40.887 15.1395 38.8526 14.8796C36.8182 14.6137 34.7538 14.9401 32.8995 15.8163C31.0391 16.6925 29.4668 18.0884 28.3686 19.8288C27.2704 21.5752 26.6883 23.5935 26.6883 25.6602V39.1359C26.6923 39.152 26.6963 39.1661 26.7003 39.1782C26.7043 39.1903 26.7103 39.2024 26.7183 39.2145C26.7263 39.2266 26.7363 39.2387 26.7483 39.2507C26.7563 39.2588 26.7683 39.2669 26.7843 39.2749L31.6272 42.0909V25.8052ZM34.2557 43.6137L40.4909 47.2395L46.7261 43.6137V36.3683L40.4969 32.7425L34.2617 36.3683L34.2557 43.6137Z" fill="white"/>
</g>
<defs>
<clipPath id="clip0_48_338">
<rect width="57" height="58" fill="white" transform="translate(12 11)"/>
</clipPath>
</defs>
</svg>
