<svg width="20" height="20" viewBox="0 0 20 20" fill="none" xmlns="http://www.w3.org/2000/svg">
<path d="M5.83329 5C4.81609 5.00305 4.25315 5.02738 3.79056 5.22154C3.14262 5.4935 2.61496 5.99586 2.30671 6.63424C2.05511 7.15532 2.01393 7.82292 1.93159 9.15809L1.80256 11.2503C1.59778 14.5707 1.49539 16.2308 2.4697 17.2819C3.444 18.3329 5.08539 18.3329 8.36821 18.3329H11.6317C14.9145 18.3329 16.556 18.3329 17.5302 17.2819C18.5045 16.2308 18.4021 14.5707 18.1974 11.2503L18.0683 9.15809C17.986 7.82292 17.9448 7.15532 17.6932 6.63424C17.385 5.99586 16.8573 5.4935 16.2094 5.22154C15.7468 5.02738 15.1838 5.00305 14.1666 5" stroke="#51586C" stroke-width="1.25" stroke-linecap="round"/>
<path d="M14.1667 5.83317L13.4285 3.9877C13.11 3.19147 12.8329 2.28825 12.0139 1.8828C11.577 1.6665 11.0514 1.6665 10 1.6665C8.94871 1.6665 8.42304 1.6665 7.98617 1.8828C7.16721 2.28825 6.89005 3.19147 6.57157 3.9877L5.83337 5.83317" stroke="#51586C" stroke-width="1.25" stroke-linecap="round" stroke-linejoin="round"/>
<path d="M12.9167 11.6667C12.9167 13.2775 11.6109 14.5833 10 14.5833C8.38921 14.5833 7.08337 13.2775 7.08337 11.6667C7.08337 10.0558 8.38921 8.75 10 8.75C11.6109 8.75 12.9167 10.0558 12.9167 11.6667Z" stroke="#51586C" stroke-width="1.25"/>
<path d="M10 5H10.0075" stroke="#51586C" stroke-width="1.66667" stroke-linecap="round" stroke-linejoin="round"/>
</svg>
