<svg width="24" height="24" viewBox="0 0 24 24" fill="none" xmlns="http://www.w3.org/2000/svg">
<path d="M11.1005 3.00391C7.45162 3.01047 5.54086 3.10005 4.31974 4.32114C3.00195 5.63889 3.00195 7.75979 3.00195 12.0015C3.00195 16.2433 3.00195 18.3642 4.31974 19.6819C5.63753 20.9997 7.75849 20.9997 12.0004 20.9997C16.2423 20.9997 18.3632 20.9997 19.6811 19.6819C20.9021 18.4609 20.9917 16.5502 20.9983 12.9014" stroke="#97AEF3" stroke-width="1.5" stroke-linecap="round" stroke-linejoin="round"/>
<path d="M20.4809 3.51837L14.9316 9.05236M20.4809 3.51837C19.9869 3.02386 16.6593 3.06995 15.9558 3.07996M20.4809 3.51837C20.9748 4.01288 20.9288 7.34414 20.9188 8.0484" stroke="#97AEF3" stroke-width="1.5" stroke-linecap="round" stroke-linejoin="round"/>
</svg>
