<svg width="20" height="20" viewBox="0 0 20 20" fill="none" xmlns="http://www.w3.org/2000/svg">
<path d="M14.5647 7.50004C14.5709 7.50002 14.5772 7.5 14.5834 7.5C16.6545 7.5 18.3334 9.17892 18.3334 11.25C18.3334 13.3211 16.6545 15 14.5834 15H5.83341C3.53223 15 1.66675 13.1345 1.66675 10.8333C1.66675 8.66692 3.32006 6.88673 5.43376 6.68558M14.5647 7.50004C14.5771 7.3628 14.5834 7.2238 14.5834 7.08333C14.5834 4.55202 12.5314 2.5 10.0001 2.5C7.60278 2.5 5.63536 4.34052 5.43376 6.68558M14.5647 7.50004C14.4795 8.44542 14.1072 9.308 13.5357 10M5.43376 6.68558C5.5653 6.67307 5.69861 6.66667 5.83341 6.66667C6.7716 6.66667 7.63736 6.97674 8.33383 7.5" stroke="white" stroke-width="1.25" stroke-linecap="round" stroke-linejoin="round"/>
<path d="M5 17.5H6.66667" stroke="white" stroke-width="1.25" stroke-linecap="round"/>
<path d="M9.16675 17.5H10.8334" stroke="white" stroke-width="1.25" stroke-linecap="round"/>
<path d="M13.3333 17.5H14.9999" stroke="white" stroke-width="1.25" stroke-linecap="round"/>
</svg>
