<svg width="20" height="20" viewBox="0 0 20 20" fill="none" xmlns="http://www.w3.org/2000/svg">
<path d="M2.91663 8.33317C2.91663 5.19047 2.91663 3.61913 3.95396 2.64281C4.99128 1.6665 6.66084 1.6665 9.99996 1.6665H10.6439C13.3615 1.6665 14.7204 1.6665 15.664 2.33137C15.9345 2.52186 16.1745 2.74777 16.3769 3.00225C17.0833 3.8904 17.0833 5.1693 17.0833 7.72711V9.84834C17.0833 12.3177 17.0833 13.5523 16.6925 14.5383C16.0643 16.1237 14.7357 17.3741 13.0513 17.9653C12.0036 18.3332 10.6918 18.3332 8.06814 18.3332C6.56892 18.3332 5.81931 18.3332 5.22061 18.123C4.25812 17.7852 3.49892 17.0706 3.13993 16.1648C2.91663 15.6013 2.91663 14.8958 2.91663 13.4847V8.33317Z" stroke="white" stroke-width="1.25" stroke-linejoin="round"/>
<path d="M17.0833 10C17.0833 11.5341 15.8397 12.7777 14.3056 12.7777C13.7508 12.7777 13.0967 12.6806 12.5572 12.8251C12.0779 12.9535 11.7035 13.3279 11.5751 13.8072C11.4306 14.3467 11.5277 15.0008 11.5277 15.5556C11.5277 17.0897 10.2841 18.3333 8.75 18.3333" stroke="white" stroke-width="1.25" stroke-linecap="round" stroke-linejoin="round"/>
<path d="M6.66663 5.8335H12.5" stroke="white" stroke-width="1.25" stroke-linecap="round" stroke-linejoin="round"/>
<path d="M6.66663 9.1665H9.16663" stroke="white" stroke-width="1.25" stroke-linecap="round" stroke-linejoin="round"/>
</svg>
