<svg width="20" height="20" viewBox="0 0 20 20" fill="none" xmlns="http://www.w3.org/2000/svg">
<path d="M12.5 2.0835V3.3335C12.5 4.512 12.5 5.10126 12.8661 5.46738C13.2322 5.8335 13.8215 5.8335 15 5.8335H16.25" stroke="white" stroke-width="1.25" stroke-linecap="round" stroke-linejoin="round"/>
<path d="M3.33325 13.3332V6.6665C3.33325 4.30948 3.33325 3.13097 4.06549 2.39874C4.79772 1.6665 5.97623 1.6665 8.33325 1.6665H11.8096C12.1502 1.6665 12.3205 1.6665 12.4737 1.72994C12.6268 1.79337 12.7473 1.9138 12.9881 2.15466L16.1784 5.34501C16.4193 5.58587 16.5398 5.7063 16.6032 5.85945C16.6666 6.01259 16.6666 6.1829 16.6666 6.52353V13.3332C16.6666 15.6902 16.6666 16.8687 15.9343 17.6009C15.2021 18.3332 14.0236 18.3332 11.6666 18.3332H8.33325C5.97623 18.3332 4.79772 18.3332 4.06549 17.6009C3.33325 16.8687 3.33325 15.6902 3.33325 13.3332Z" stroke="white" stroke-width="1.25" stroke-linecap="round" stroke-linejoin="round"/>
<path d="M6.66675 9.1665H13.3334M6.66675 11.6665H13.3334M6.66675 14.1665H10.1424" stroke="white" stroke-width="1.25" stroke-linecap="round" stroke-linejoin="round"/>
</svg>
