<svg width="20" height="20" viewBox="0 0 20 20" fill="none" xmlns="http://www.w3.org/2000/svg">
<path d="M12.9167 9.99967C12.9167 11.6105 11.6109 12.9163 10 12.9163C8.38921 12.9163 7.08337 11.6105 7.08337 9.99967C7.08337 8.38884 8.38921 7.08301 10 7.08301C11.6109 7.08301 12.9167 8.38884 12.9167 9.99967Z" stroke="white" stroke-width="1.5"/>
<path d="M18.3333 11.6388V8.36067C15.9527 8.36067 14.4047 5.77502 15.61 3.7221L12.7232 2.08309C11.5031 4.16138 8.49813 4.1613 7.27798 2.08301L4.39123 3.72202C5.59651 5.77497 4.04723 8.36067 1.66663 8.36067V11.6388C4.04719 11.6388 5.59517 14.2244 4.38992 16.2773L7.27667 17.9163C8.49738 15.837 11.5038 15.8369 12.7245 17.9163L15.6113 16.2773C14.4061 14.2243 15.9528 11.6388 18.3333 11.6388Z" stroke="white" stroke-width="1.5" stroke-linecap="round" stroke-linejoin="round"/>
</svg>
