<svg width="20" height="20" viewBox="0 0 20 20" fill="none" xmlns="http://www.w3.org/2000/svg">
<path d="M17.5 5.41699C17.5 6.7977 16.3807 7.91699 15 7.91699C13.6192 7.91699 12.5 6.7977 12.5 5.41699C12.5 4.03628 13.6192 2.91699 15 2.91699C16.3807 2.91699 17.5 4.03628 17.5 5.41699Z" stroke="white" stroke-width="1.25"/>
<path d="M7.5 10C7.5 11.3807 6.38071 12.5 5 12.5C3.61929 12.5 2.5 11.3807 2.5 10C2.5 8.61925 3.61929 7.5 5 7.5C6.38071 7.5 7.5 8.61925 7.5 10Z" stroke="white" stroke-width="1.25"/>
<path d="M17.5 14.583C17.5 15.9638 16.3807 17.083 15 17.083C13.6192 17.083 12.5 15.9638 12.5 14.583C12.5 13.2023 13.6192 12.083 15 12.083C16.3807 12.083 17.5 13.2023 17.5 14.583Z" stroke="white" stroke-width="1.25"/>
<path d="M7.2738 8.95756L12.6905 6.45801M7.2738 11.0413L12.6905 13.5409" stroke="white" stroke-width="1.25"/>
</svg>
