<svg width="32" height="32" viewBox="0 0 32 32" fill="none" xmlns="http://www.w3.org/2000/svg">
<g id="Dai (DAI)">
<path id="Dai (DAI)_2" d="M16 0C24.8374 0 32 7.16407 32 16C32 24.8374 24.8374 32 16 32C7.16407 32 0 24.8366 0 16C0 7.16407 7.16407 0 16 0Z" fill="#F5AC37"/>
<path id="Dai (DAI)_3" fill-rule="evenodd" clip-rule="evenodd" d="M8.38011 24.8202V24.88L8.37723 24.8821V24.8922H15.3174C16.1029 24.903 16.8856 24.8404 17.6574 24.7021C18.4703 24.543 19.2623 24.2925 20.0176 23.9526C20.3451 23.8009 20.6593 23.6176 20.9763 23.4327C21.0565 23.3858 21.137 23.3389 21.2178 23.2924C21.5908 23.0267 21.9479 22.7387 22.2878 22.4327C23.218 21.5917 23.938 20.5427 24.388 19.3726C24.4183 19.2416 24.5464 19.1574 24.6782 19.1826H26.5682C26.7187 19.1826 26.7684 19.1322 26.7684 18.9622V17.7519C26.7785 17.636 26.7785 17.5186 26.7684 17.4027C26.7684 17.3724 26.7762 17.3422 26.7839 17.312C26.7994 17.2519 26.8149 17.1919 26.7684 17.132H25.1894C24.9986 17.132 24.9986 17.1118 24.9986 16.9419C25.0533 16.3328 25.0533 15.7215 24.9986 15.1124C24.9885 14.9324 25.0288 14.9324 25.1685 14.9324H26.5488C26.7093 14.9324 26.7691 14.892 26.7691 14.7322V13.092C26.7641 12.9834 26.7616 12.9283 26.7328 12.9004C26.7032 12.8717 26.6458 12.8717 26.5293 12.8717H24.7394C24.5997 12.8955 24.4658 12.8011 24.4406 12.6615C24.2354 12.1251 23.974 11.6117 23.6594 11.1314C23.3426 10.6577 22.9855 10.2127 22.5895 9.80159C22.0631 9.27598 21.472 8.8195 20.8298 8.4415C19.8613 7.87917 18.8022 7.48533 17.6999 7.28156C17.1649 7.18292 16.6242 7.12316 16.0799 7.10156H8.58028C8.38011 7.10156 8.38011 7.14188 8.38011 7.30172V12.6917C8.38011 12.8818 8.33979 12.8818 8.19003 12.8818H6.04009C5.88025 12.8818 5.88025 12.9113 5.88025 13.0215V14.7812C5.88025 14.941 5.92993 14.941 6.05017 14.941H8.22027C8.38011 14.941 8.38011 14.9705 8.38011 15.0908V16.9707C8.38011 17.1406 8.32971 17.1406 8.20011 17.1406H5.88025V19.0407C5.88025 19.2006 5.92993 19.2006 6.05017 19.2006H8.22027C8.38011 19.2006 8.38011 19.22 8.38011 19.3503V21.7004V22.4903V24.8202ZM22.1902 12.7105C22.2075 12.7551 22.2075 12.8048 22.1902 12.8502H22.2384C22.2183 12.9099 22.1182 12.9301 22.1182 12.9301H10.5786C10.3885 12.9301 10.3885 12.8898 10.3885 12.74V9.19038C10.3885 9.06005 10.4087 9.00029 10.5585 9.00029H15.9283C16.5 8.99525 17.0702 9.05501 17.6282 9.1803C18.7342 9.44238 19.763 9.96366 20.6285 10.7002C20.8013 10.8291 20.9554 10.981 21.0886 11.1502C21.3708 11.4303 21.6185 11.7421 21.8287 12.0805C21.9684 12.2785 22.0887 12.4894 22.1902 12.7105ZM22.6692 17.13H16.5895H10.6293C10.3895 17.13 10.3895 17.13 10.3895 16.9003V15.1204C10.3895 14.98 10.4298 14.9303 10.5796 14.9303H22.6793C22.8097 14.9303 22.8694 14.98 22.8694 15.1003C22.9191 15.7195 22.9191 16.3416 22.8694 16.96C22.8601 17.13 22.7988 17.13 22.6692 17.13ZM22.1904 19.21C22.0205 19.1913 21.8492 19.1913 21.6792 19.21H10.5897C10.4399 19.21 10.3895 19.21 10.3895 19.4102V22.8806C10.3895 23.0404 10.3895 23.0808 10.5897 23.0808H15.7097C15.9545 23.0995 16.1993 23.0822 16.439 23.0311C17.1821 22.9778 17.9129 22.8165 18.6098 22.5508C18.8633 22.463 19.1081 22.3485 19.3392 22.211H19.4091C20.6093 21.5867 21.5842 20.6061 22.1991 19.4022C22.1991 19.4022 22.2689 19.251 22.1904 19.2114V19.21Z" fill="#FEFEFD"/>
</g>
</svg>
