<svg width="25" height="24" viewBox="0 0 25 24" fill="none" xmlns="http://www.w3.org/2000/svg">
<path d="M14.5 18C18.9183 18 22.5 14.4183 22.5 10C22.5 5.58172 18.9183 2 14.5 2C10.0817 2 6.5 5.58172 6.5 10C6.5 14.4183 10.0817 18 14.5 18Z" stroke="#0C0C0C" stroke-width="1.25" stroke-linecap="round" stroke-linejoin="round"/>
<path d="M3.65657 11C2.92523 12.1176 2.5 13.4535 2.5 14.8888C2.5 18.8162 5.68378 22 9.61116 22C11.0465 22 12.3824 21.5748 13.5 20.8434" stroke="#0C0C0C" stroke-width="1.25" stroke-linejoin="round"/>
<path d="M14.5 7C13.3954 7 12.5 7.67157 12.5 8.5C12.5 9.32843 13.3954 10 14.5 10C15.6046 10 16.5 10.6716 16.5 11.5C16.5 12.3284 15.6046 13 14.5 13M14.5 7C15.3708 7 16.1116 7.4174 16.3862 8M14.5 7V5.5M14.5 13C13.6292 13 12.8884 12.5826 12.6138 12M14.5 13V14.5" stroke="#0C0C0C" stroke-width="1.25" stroke-linejoin="round"/>
</svg>
