<svg width="16" height="16" viewBox="0 0 16 16" fill="none" xmlns="http://www.w3.org/2000/svg">
<g id="information-circle">
<path id="Vector" fill-rule="evenodd" clip-rule="evenodd" d="M0.833313 8.00004C0.833313 11.9581 4.04194 15.1667 7.99998 15.1667C11.958 15.1667 15.1666 11.9581 15.1666 8.00004C15.1666 4.042 11.958 0.833374 7.99998 0.833374C4.04194 0.833374 0.833313 4.042 0.833313 8.00004ZM7.78791 7.35157C7.95258 7.37371 8.18045 7.43297 8.37378 7.62631C8.56711 7.81964 8.62638 8.04744 8.64851 8.21217C8.66685 8.34857 8.66671 8.50724 8.66665 8.64044V8.66671V11.3334C8.66665 11.7016 8.36818 12 7.99998 12C7.63178 12 7.33331 11.7016 7.33331 11.3334V8.66671C6.96511 8.66671 6.66665 8.36824 6.66665 8.00004C6.66665 7.63184 6.96511 7.33337 7.33331 7.33337H7.35958C7.49285 7.33331 7.65145 7.33317 7.78791 7.35157ZM7.99691 4.66671C7.63038 4.66671 7.33325 4.96519 7.33325 5.33337C7.33325 5.70156 7.63038 6.00004 7.99691 6.00004H8.00291C8.36945 6.00004 8.66658 5.70156 8.66658 5.33337C8.66658 4.96519 8.36945 4.66671 8.00291 4.66671H7.99691Z" fill="#97AEF3"/>
</g>
</svg>
