<svg width="32" height="32" viewBox="0 0 32 32" fill="none" xmlns="http://www.w3.org/2000/svg">
<g id="Tether (USDT)">
<g id="Tether (USDT)_2">
<path id="Tether (USDT)_3" d="M31.5177 19.8705C29.3808 28.442 20.6992 33.6584 12.1267 31.521C3.55778 29.3841 -1.65868 20.702 0.479176 12.1312C2.61515 3.5587 11.2967 -1.65814 19.8666 0.478775C28.4385 2.61569 33.6546 11.2987 31.5175 19.8706L31.5176 19.8705H31.5177Z" fill="#50AF95"/>
<path id="Tether (USDT)_4" fill-rule="evenodd" clip-rule="evenodd" d="M18.0246 17.8139C17.9115 17.8224 17.327 17.8573 16.0231 17.8573C14.986 17.8573 14.2497 17.8262 13.9914 17.8139C9.98361 17.6376 6.99215 16.94 6.99215 16.1047C6.99215 15.2693 9.98361 14.5726 13.9914 14.3935V17.1191C14.2535 17.1379 15.004 17.1823 16.041 17.1823C17.2855 17.1823 17.9087 17.1304 18.0209 17.12V14.3954C22.0202 14.5736 25.005 15.2712 25.005 16.1047C25.005 16.9381 22.0211 17.6357 18.0209 17.813L18.0246 17.8139ZM18.0246 14.1135V11.6745H23.6059V7.9552H8.4101V11.6745H13.9905V14.1125C9.45471 14.3209 6.0437 15.2194 6.0437 16.296C6.0437 17.3727 9.45471 18.2702 13.9905 18.4795V26.2952H18.0237V18.4767C22.5491 18.2684 25.9544 17.3708 25.9544 16.2951C25.9544 15.2194 22.5519 14.3218 18.0237 14.1125L18.0246 14.1135Z" fill="white"/>
</g>
</g>
</svg>
