<svg width="32" height="32" viewBox="0 0 32 32" fill="none" xmlns="http://www.w3.org/2000/svg">
<g id="USD Coin (USDC)">
<path id="USD Coin (USDC)_2" d="M16 32C24.8667 32 32 24.8667 32 16C32 7.13328 24.8667 0 16 0C7.13328 0 0 7.13328 0 16C0 24.8667 7.13328 32 16 32Z" fill="#2775CA"/>
<path id="USD Coin (USDC)_3" d="M20.4001 18.5334C20.4001 16.2001 19.0001 15.4001 16.2001 15.0669C14.2001 14.8001 13.8001 14.2669 13.8001 13.3334C13.8001 12.4 14.4668 11.8001 15.8001 11.8001C17.0001 11.8001 17.6668 12.2001 18.0001 13.2001C18.0668 13.4001 18.2668 13.5334 18.4668 13.5334H19.5334C19.8001 13.5334 20.0001 13.3334 20.0001 13.0669V13.0001C19.7334 11.5334 18.5334 10.4001 17.0001 10.2669V8.66686C17.0001 8.40014 16.8001 8.20014 16.4668 8.13342H15.4668C15.2001 8.13342 15.0001 8.33342 14.9334 8.66686V10.2001C12.9334 10.4669 11.6668 11.8001 11.6668 13.4669C11.6668 15.6669 13.0001 16.5334 15.8001 16.8669C17.6668 17.2001 18.2668 17.6001 18.2668 18.6669C18.2668 19.7336 17.3334 20.4669 16.0668 20.4669C14.3334 20.4669 13.7334 19.7334 13.5334 18.7334C13.4668 18.4669 13.2668 18.3334 13.0668 18.3334H11.9334C11.6668 18.3334 11.4668 18.5334 11.4668 18.8001V18.8669C11.7334 20.5334 12.8001 21.7334 15.0001 22.0669V23.6669C15.0001 23.9334 15.2001 24.1334 15.5334 24.2001H16.5334C16.8001 24.2001 17.0001 24.0001 17.0668 23.6669V22.0669C19.0668 21.7334 20.4001 20.3334 20.4001 18.5334Z" fill="white"/>
<path id="USD Coin (USDC)_4" fill-rule="evenodd" clip-rule="evenodd" d="M6.66607 12.7332C4.73263 17.8666 7.39935 23.6666 12.5993 25.5332C12.7993 25.6666 12.9993 25.9332 12.9993 26.1332V27.0666C12.9993 27.1999 12.9993 27.2666 12.9326 27.3332C12.8661 27.5999 12.5993 27.7332 12.3326 27.5999C8.59935 26.3999 5.73263 23.5332 4.53263 19.7999C2.53263 13.4666 5.99935 6.73319 12.3326 4.73319C12.3993 4.66663 12.5326 4.66663 12.5993 4.66663C12.8661 4.73319 12.9993 4.93319 12.9993 5.19991V6.13319C12.9993 6.46663 12.8661 6.66663 12.5993 6.79991C9.86607 7.79991 7.66607 9.93319 6.66607 12.7332ZM19.0657 4.99979C19.1323 4.73307 19.399 4.59979 19.6657 4.73307C23.3323 5.93307 26.2657 8.79979 27.4657 12.5998C29.4657 18.9331 25.999 25.6665 19.6657 27.6665C19.599 27.7331 19.4657 27.7331 19.399 27.7331C19.1323 27.6665 18.999 27.4665 18.999 27.1998V26.2665C18.999 25.9331 19.1323 25.7331 19.399 25.5998C22.1323 24.5998 24.3323 22.4665 25.3323 19.6665C27.2657 14.5331 24.599 8.73307 19.399 6.86651C19.199 6.73307 18.999 6.46651 18.999 6.19979V5.26651C18.999 5.13307 18.999 5.06651 19.0657 4.99979Z" fill="white"/>
</g>
</svg>
